<svg
  xmlns="http://www.w3.org/2000/svg"
  width="512px"
  height="512px"
  viewBox="0 0 135.467 135.467"
>
  <path fill="#64748B"
    d="M66.514 64.306c2.642-2.109 5.137-4.659 8.478-5.615 5.974-1.606 12.221-1.489 18.287-2.554 4.53-.735 9.072-2.193 12.697-5.097 6.77-5.168 10.58-13.882 9.924-22.359-.356-9.699-5.884-19.14-14.397-23.894-8.318-4.86-19.136-5.379-27.729-.91C66.63 7.507 60.97 14.23 59.155 22.092c-1.134 5.584-.023 11.377 2.022 16.616 2.215 6.304 4.581 12.704 4.902 19.446.081 2.323-.307 4.625-.527 6.93l.962-.778zM67.991 71.939c-2.642 2.109-5.137 4.659-8.478 5.615-5.974 1.606-12.22 1.489-18.287 2.554-4.529.735-9.072 2.193-12.697 5.097-6.77 5.168-10.579 13.882-9.924 22.359.356 9.699 5.884 19.14 14.397 23.894 8.318 4.861 19.136 5.379 27.73.91 7.144-3.629 12.803-10.352 14.618-18.215 1.134-5.584.023-11.377-2.022-16.616-2.215-6.304-4.58-12.704-4.902-19.446-.08-2.323.307-4.625.527-6.93l-.962.778z"
  />
</svg>
