<svg xmlns="http://www.w3.org/2000/svg" width="512" height="512" viewBox="0 0 135.467 135.467"><rect style="fill:#17181f;fill-opacity:1;stroke-width:.324645;stroke-linejoin:round;stop-color:#000" width="135.467" height="135.467" ry="67.733" rx="67.733"/><path fill="#64748b" d="M60.82 67.323c1.616-1.29 3.143-2.85 5.187-3.435 3.655-.983 7.477-.911 11.189-1.563 2.772-.45 5.55-1.342 7.769-3.119 4.142-3.162 6.473-8.493 6.072-13.68-.218-5.935-3.6-11.711-8.81-14.62-5.089-2.974-11.708-3.291-16.965-.557-4.372 2.221-7.835 6.335-8.945 11.145-.694 3.417-.014 6.961 1.237 10.167 1.355 3.857 2.803 7.773 3 11.898.049 1.422-.189 2.83-.323 4.24zm.903 4.67c-1.616 1.291-3.143 2.851-5.187 3.436-3.655.983-7.477.911-11.19 1.563-2.77.45-5.55 1.342-7.768 3.119-4.142 3.162-6.473 8.493-6.072 13.68.218 5.935 3.6 11.711 8.809 14.62 5.09 2.974 11.708 3.291 16.967.557 4.37-2.22 7.833-6.334 8.944-11.145.694-3.417.014-6.961-1.237-10.167-1.356-3.857-2.803-7.773-3-11.898-.049-1.422.188-2.83.323-4.24z" style="fill:none;fill-opacity:1;stroke:#eceff4;stroke-width:1.96792;stroke-miterlimit:4;stroke-dasharray:none;stroke-opacity:1"/><path fill="#64748b" d="M66.951 64.906c1.617-1.29 3.143-2.85 5.187-3.435 3.656-.983 7.478-.911 11.19-1.563 2.771-.45 5.55-1.342 7.768-3.119 4.143-3.162 6.474-8.493 6.072-13.68-.217-5.935-3.6-11.711-8.809-14.62-5.089-2.974-11.708-3.291-16.966-.557-4.37 2.221-7.834 6.335-8.945 11.145-.693 3.417-.014 6.961 1.238 10.167 1.355 3.857 2.803 7.773 2.999 11.898.05 1.422-.188 2.83-.323 4.24zm.904 4.67c-1.617 1.291-3.143 2.851-5.188 3.436-3.655.983-7.476.911-11.189 1.563-2.77.45-5.55 1.342-7.768 3.119-4.143 3.162-6.473 8.493-6.072 13.68.217 5.935 3.6 11.711 8.808 14.62 5.09 2.974 11.709 3.291 16.967.557 4.371-2.22 7.834-6.334 8.945-11.145.693-3.417.014-6.961-1.238-10.167-1.355-3.857-2.802-7.773-2.999-11.898-.049-1.422.188-2.83.322-4.24z" style="fill:none;fill-opacity:1;stroke:#eceff4;stroke-width:1.96792;stroke-miterlimit:4;stroke-dasharray:none;stroke-opacity:1"/><path fill="#64748b" d="M73.744 63.473c1.616-1.29 3.143-2.85 5.187-3.435 3.655-.983 7.478-.912 11.19-1.563 2.77-.45 5.55-1.342 7.768-3.119 4.142-3.162 6.473-8.494 6.072-13.68-.218-5.935-3.6-11.711-8.809-14.62-5.09-2.974-11.708-3.291-16.966-.557-4.371 2.221-7.834 6.335-8.945 11.145-.694 3.417-.014 6.961 1.237 10.167 1.355 3.857 2.803 7.773 3 11.898.05 1.421-.188 2.83-.323 4.24zm.903 4.67c-1.616 1.29-3.143 2.851-5.187 3.436-3.655.983-7.477.911-11.189 1.563-2.771.45-5.55 1.342-7.769 3.118-4.142 3.163-6.473 8.494-6.072 13.681.218 5.934 3.6 11.711 8.81 14.62 5.089 2.974 11.708 3.291 16.966.557 4.371-2.22 7.834-6.334 8.944-11.145.694-3.417.014-6.962-1.237-10.167-1.355-3.857-2.802-7.773-3-11.898-.048-1.422.188-2.83.323-4.24z" style="fill:none;fill-opacity:1;stroke:#eceff4;stroke-width:1.96792;stroke-miterlimit:4;stroke-dasharray:none;stroke-opacity:1"/><path fill="#64748b" d="M73.744 63.473c1.616-1.29 3.143-2.85 5.187-3.435 3.655-.983 7.478-.912 11.19-1.563 2.77-.45 5.55-1.342 7.768-3.119 4.142-3.162 6.473-8.494 6.072-13.68-.218-5.935-3.6-11.711-8.809-14.62-5.09-2.974-11.708-3.291-16.966-.557-4.371 2.221-7.834 6.335-8.945 11.145-.694 3.417-.014 6.961 1.237 10.167 1.355 3.857 2.803 7.773 3 11.898.05 1.421-.188 2.83-.323 4.24zm.903 4.67c-1.616 1.29-3.143 2.851-5.187 3.436-3.655.983-7.477.911-11.189 1.563-2.771.45-5.55 1.342-7.769 3.118-4.142 3.163-6.473 8.494-6.072 13.681.218 5.934 3.6 11.711 8.81 14.62 5.089 2.974 11.708 3.291 16.966.557 4.371-2.22 7.834-6.334 8.944-11.145.694-3.417.014-6.962-1.237-10.167-1.355-3.857-2.802-7.773-3-11.898-.048-1.422.188-2.83.323-4.24z" style="fill:none;fill-opacity:1;stroke:#eceff4;stroke-width:1.96792;stroke-miterlimit:4;stroke-dasharray:none;stroke-opacity:1"/></svg>