<?xml version="1.0" encoding="UTF-8" standalone="no"?>
<svg
   xmlns:dc="http://purl.org/dc/elements/1.1/"
   xmlns:cc="http://creativecommons.org/ns#"
   xmlns:rdf="http://www.w3.org/1999/02/22-rdf-syntax-ns#"
   xmlns:svg="http://www.w3.org/2000/svg"
   xmlns="http://www.w3.org/2000/svg"
   xmlns:sodipodi="http://sodipodi.sourceforge.net/DTD/sodipodi-0.dtd"
   xmlns:inkscape="http://www.inkscape.org/namespaces/inkscape"
   width="512"
   height="512"
   viewBox="0 0 135.46667 135.46667"
   version="1.1"
   id="svg8"
   inkscape:version="1.0.1 (3bc2e813f5, 2020-09-07)"
   sodipodi:docname="app-icon.svg">
  <defs
     id="defs2">
    <marker
       style="overflow:visible"
       id="Arrow2Lend"
       refX="0"
       refY="0"
       orient="auto"
       inkscape:stockid="Arrow2Lend"
       inkscape:isstock="true">
      <path
         transform="matrix(-1.1,0,0,-1.1,-1.1,0)"
         d="M 8.7185878,4.0337352 -2.2072895,0.01601326 8.7185884,-4.0017078 c -1.7454984,2.3720609 -1.7354408,5.6174519 -6e-7,8.035443 z"
         style="fill:#000000;fill-opacity:1;fill-rule:evenodd;stroke:#000000;stroke-width:0.625;stroke-linejoin:round;stroke-opacity:1"
         id="path1058" />
    </marker>
    <marker
       style="overflow:visible"
       id="Arrow1Lend"
       refX="0"
       refY="0"
       orient="auto"
       inkscape:stockid="Arrow1Lend"
       inkscape:isstock="true">
      <path
         transform="matrix(-0.8,0,0,-0.8,-10,0)"
         style="fill:#000000;fill-opacity:1;fill-rule:evenodd;stroke:#000000;stroke-width:1pt;stroke-opacity:1"
         d="M 0,0 5,-5 -12.5,0 5,5 Z"
         id="path1040" />
    </marker>
    <rect
       x="409.10638"
       y="222.50671"
       width="23.961992"
       height="19.895267"
       id="rect882" />
  </defs>
  <sodipodi:namedview
     id="base"
     pagecolor="#ffffff"
     bordercolor="#666666"
     borderopacity="1.0"
     inkscape:pageopacity="0.0"
     inkscape:pageshadow="2"
     inkscape:zoom="1.4"
     inkscape:cx="316.52575"
     inkscape:cy="320.13675"
     inkscape:document-units="px"
     inkscape:current-layer="layer1"
     inkscape:document-rotation="0"
     showgrid="false"
     inkscape:snap-page="true"
     inkscape:window-width="1920"
     inkscape:window-height="1012"
     inkscape:window-x="0"
     inkscape:window-y="32"
     inkscape:window-maximized="1"
     fit-margin-top="0"
     fit-margin-left="0"
     fit-margin-right="0"
     fit-margin-bottom="0"
     units="px" />
  <metadata
     id="metadata5">
    <rdf:RDF>
      <cc:Work
         rdf:about="">
        <dc:format>image/svg+xml</dc:format>
        <dc:type
           rdf:resource="http://purl.org/dc/dcmitype/StillImage" />
        <dc:title />
      </cc:Work>
    </rdf:RDF>
  </metadata>
  <g
     inkscape:label="Layer 1"
     inkscape:groupmode="layer"
     id="layer1"
     transform="translate(-611.78692,-120.89876)">
    <path
       d="M 678.301 185.205 C 680.943 183.096 683.438 180.546 686.779 179.59 C 692.753 177.984 699 178.101 705.066 177.036 C 709.595 176.301 714.138 174.843 717.763 171.939 C 724.533 166.771 728.342 158.057 727.687 149.58 C 727.331 139.881 721.803 130.44 713.29 125.686 C 704.972 120.825 694.154 120.307 685.561 124.776 C 678.416 128.405 672.757 135.128 670.942 142.991 C 669.808 148.575 670.919 154.368 672.964 159.607 C 675.179 165.911 677.545 172.311 677.866 179.053 C 677.947 181.376 677.559 183.678 677.339 185.983 C 677.66 185.724 677.981 185.464 678.301 185.205 Z" />
    <path
       d="m 679.77829,192.83773 c -2.642,2.109 -5.137,4.659 -8.478,5.615 -5.974,1.606 -12.221,1.489 -18.287,2.554 -4.529,0.735 -9.072,2.193 -12.697,5.097 -6.77,5.168 -10.579,13.882 -9.924,22.359 0.356,9.699 5.884,19.14 14.397,23.894 8.318,4.861 19.136,5.379 27.729,0.91 7.145,-3.629 12.804,-10.352 14.619,-18.215 1.134,-5.584 0.023,-11.377 -2.022,-16.616 -2.215,-6.304 -4.581,-12.704 -4.902,-19.446 -0.081,-2.323 0.307,-4.625 0.527,-6.93 -0.321,0.259 -0.642,0.519 -0.962,0.778 z" />
  </g>
</svg>
